<?xml version="1.0" encoding="iso-8859-1"?>
<!-- Generator: Adobe Illustrator 19.0.0, SVG Export Plug-In . SVG Version: 6.00 Build 0)  -->
<svg xmlns="http://www.w3.org/2000/svg" xmlns:xlink="http://www.w3.org/1999/xlink" version="1.1" id="Layer_1" x="0px" y="0px" viewBox="0 0 512.001 512.001" style="enable-background:new 0 0 512.001 512.001;" xml:space="preserve" width="512px" height="512px">
<g>
	<g>
		<path d="M503.66,91.217c-6.1-7.38-14.742-11.987-24.143-12.99V42.374c0-17.626-14.341-31.966-31.966-31.966H64.449    c-17.626,0-31.966,14.34-31.966,31.966v35.852c-9.4,1.003-18.043,5.61-24.143,12.99c-6.933,8.39-9.734,19.331-7.684,30.02    l32.442,169.164L19.842,466.346c-0.683,9.068,2.472,18.091,8.655,24.757c6.183,6.667,14.945,10.49,24.038,10.49h406.93    c9.094,0,17.854-3.823,24.038-10.49c6.183-6.667,9.338-15.69,8.654-24.758l-13.255-175.945l32.443-169.161    C513.394,110.548,510.593,99.607,503.66,91.217z M53.181,42.374c-0.001-6.214,5.054-11.27,11.268-11.27h383.104    c6.214,0,11.27,5.055,11.27,11.27v35.641H53.181V42.374z M491.017,117.339l-31.091,162.117h-72.851    c-5.716,0-10.348,4.633-10.348,10.348c0,5.715,4.632,10.348,10.348,10.348h71.807l12.638,167.748    c0.255,3.393-0.879,6.634-3.191,9.128c-2.312,2.495-5.461,3.867-8.863,3.867H52.535c-3.402,0-6.551-1.374-8.863-3.869    c-2.314-2.495-3.447-5.736-3.191-9.128l12.638-167.748h78.706c5.715,0,10.348-4.633,10.348-10.348s-4.633-10.348-10.348-10.348    H52.073L20.982,117.339c-0.883-4.607,0.323-9.323,3.311-12.938c2.989-3.616,7.391-5.69,12.082-5.69h439.247    c4.69,0,9.095,2.074,12.084,5.69C490.694,108.016,491.902,112.732,491.017,117.339z" fill="#e6e3da"/>
	</g>
</g>
<g>
	<g>
		<path d="M309.808,279.457h-55.879c-5.715,0-10.348,4.633-10.348,10.348c0,5.715,4.633,10.348,10.348,10.348h55.879    c5.716,0,10.348-4.633,10.348-10.348C320.156,284.09,315.525,279.457,309.808,279.457z" fill="#e6e3da"/>
	</g>
</g>
<g>
	<g>
		<path d="M220.362,295.324c16.496-10.863,27.36-29.228,27.36-50.015c0-33.285-27.853-60.363-62.088-60.363    c-34.235,0-62.088,27.079-62.088,60.363c0,5.715,4.633,10.348,10.348,10.348s10.348-4.633,10.348-10.348    c0-21.873,18.568-39.667,41.392-39.667s41.392,17.794,41.392,39.667s-18.568,39.667-41.392,39.667h-19.316    c-5.715,0-10.348,4.633-10.348,10.348c0,5.715,4.633,10.348,10.348,10.348h19.316c22.824,0,41.392,17.794,41.392,39.667    s-18.568,39.667-41.392,39.667s-41.392-17.794-41.392-39.667c0-5.715-4.633-10.348-10.348-10.348s-10.348,4.633-10.348,10.348    c0,33.285,27.853,60.363,62.088,60.363c34.235,0,62.088-27.079,62.088-60.363C247.722,324.553,236.858,306.186,220.362,295.324z" fill="#e6e3da"/>
	</g>
</g>
<g>
	<g>
		<path d="M354.93,186.293c-3.238-1.838-7.215-1.794-10.416,0.117l-56.569,33.803c-4.905,2.932-6.505,9.284-3.575,14.191    c2.933,4.906,9.283,6.507,14.192,3.575l40.912-24.448v181.823c0,5.715,4.632,10.348,10.348,10.348s10.348-4.633,10.348-10.348    V195.293C360.17,191.569,358.168,188.131,354.93,186.293z" fill="#e6e3da"/>
	</g>
</g>
<g>
	<g>
		<circle cx="362.194" cy="53.662" r="10.348" fill="#e6e3da"/>
	</g>
</g>
<g>
	<g>
		<circle cx="152.53" cy="53.662" r="10.348" fill="#e6e3da"/>
	</g>
</g>
<g>
</g>
<g>
</g>
<g>
</g>
<g>
</g>
<g>
</g>
<g>
</g>
<g>
</g>
<g>
</g>
<g>
</g>
<g>
</g>
<g>
</g>
<g>
</g>
<g>
</g>
<g>
</g>
<g>
</g>
</svg>
