<?xml version="1.0" encoding="iso-8859-1"?>
<!-- Generator: Adobe Illustrator 19.0.0, SVG Export Plug-In . SVG Version: 6.00 Build 0)  -->
<svg xmlns="http://www.w3.org/2000/svg" xmlns:xlink="http://www.w3.org/1999/xlink" version="1.1" id="Layer_1" x="0px" y="0px" viewBox="0 0 512 512" style="enable-background:new 0 0 512 512;" xml:space="preserve" width="512px" height="512px">
<g>
	<g>
		<path d="M256.953,231.871l-128.982,80.046V512h84.341V373.434c0-24.129,19.56-43.688,43.688-43.688    c24.129,0,43.688,19.56,43.688,43.688V512h84.341V311.994L256.953,231.871z" fill="#cc9e7f"/>
	</g>
</g>
<g>
	<g>
		<polygon points="272.697,89.435 272.697,54.942 294.843,54.942 294.843,21.551 272.697,21.551 272.697,0 239.305,0     239.305,21.551 217.159,21.551 217.159,54.942 239.305,54.942 239.305,89.435 184.85,184.148 184.85,237.32 239.346,203.499     257.093,192.485 274.763,203.626 327.152,236.658 327.152,184.148   " fill="#cc9e7f"/>
	</g>
</g>
<g>
</g>
<g>
</g>
<g>
</g>
<g>
</g>
<g>
</g>
<g>
</g>
<g>
</g>
<g>
</g>
<g>
</g>
<g>
</g>
<g>
</g>
<g>
</g>
<g>
</g>
<g>
</g>
<g>
</g>
</svg>
