<?xml version="1.0" encoding="iso-8859-1"?>
<!-- Generator: Adobe Illustrator 19.0.0, SVG Export Plug-In . SVG Version: 6.00 Build 0)  -->
<svg xmlns="http://www.w3.org/2000/svg" xmlns:xlink="http://www.w3.org/1999/xlink" version="1.1" id="Layer_1" x="0px" y="0px" viewBox="0 0 512 512" style="enable-background:new 0 0 512 512;" xml:space="preserve" width="512px" height="512px">
<g>
	<g>
		<path d="M439.714,460.582l-36.062,6.359l-25.829-146.486c36.06-14.235,58.444-52.373,51.456-92.004L400.828,67.085L256.001,92.621    L111.175,67.085L82.722,228.451c-6.988,39.631,15.396,77.769,51.456,92.004l-25.829,146.486l-36.062-6.359l-5.801,32.9    L171.508,512l5.801-32.9l-36.06-6.359l25.832-146.504c38.75-1.047,72.83-29.211,79.817-68.838L256,205.778l9.103,51.622    c6.988,39.63,41.064,67.791,79.817,68.838l25.832,146.504l-36.06,6.359l5.801,32.9l105.021-18.518L439.714,460.582z     M223.057,200.23l-102.843,7.983l18.061-102.427l98.375,17.346L223.057,200.23z M288.946,200.231l-13.594-77.098l98.376-17.346    l18.06,102.427L288.946,200.231z" fill="#cc9e7f"/>
	</g>
</g>
<g>
	<g>
		<rect x="239.302" width="33.408" height="51.945" fill="#cc9e7f"/>
	</g>
</g>
<g>
	<g>
		<rect x="172.264" y="7.602" transform="matrix(0.7071 -0.7071 0.7071 0.7071 31.6072 143.4541)" width="33.408" height="51.944" fill="#cc9e7f"/>
	</g>
</g>
<g>
	<g>
		<rect x="297.054" y="16.868" transform="matrix(0.7071 -0.7071 0.7071 0.7071 70.873 238.2468)" width="51.944" height="33.408" fill="#cc9e7f"/>
	</g>
</g>
<g>
</g>
<g>
</g>
<g>
</g>
<g>
</g>
<g>
</g>
<g>
</g>
<g>
</g>
<g>
</g>
<g>
</g>
<g>
</g>
<g>
</g>
<g>
</g>
<g>
</g>
<g>
</g>
<g>
</g>
</svg>
